<?xml version="1.0" standalone="no"?>
<!DOCTYPE svg PUBLIC "-//W3C//DTD SVG 20010904//EN"
 "http://www.w3.org/TR/2001/REC-SVG-20010904/DTD/svg10.dtd">
<svg version="1.0" xmlns="http://www.w3.org/2000/svg"
 width="1000.000000pt" height="1000.000000pt" viewBox="0 0 1000.000000 1000.000000"
 preserveAspectRatio="xMidYMid meet">
<metadata>
Created by potrace 1.15, written by Peter Selinger 2001-2017
</metadata>
<g transform="translate(0.000000,1000.000000) scale(0.100000,-0.100000)"
fill="#000000" stroke="none">
<path d="M4577 8463 c-3 -4 -17 -65 -33 -135 l-27 -127 -113 -46 -113 -47
-109 75 -109 76 -84 -66 c-46 -36 -86 -67 -88 -69 -4 -3 21 -45 119 -202 l33
-52 -43 -103 c-24 -56 -47 -107 -52 -114 -5 -6 -33 -17 -61 -22 -29 -6 -85
-18 -124 -27 l-73 -16 0 -113 0 -113 113 -27 c61 -15 119 -31 128 -36 8 -4 35
-58 59 -118 l43 -111 -77 -115 -77 -116 73 -78 c40 -43 76 -79 80 -80 3 -1 58
32 122 73 l116 74 103 -45 c56 -25 106 -49 110 -53 5 -4 21 -66 36 -136 l27
-129 109 -3 110 -3 29 131 c16 72 34 134 40 139 17 13 194 81 211 81 9 0 63
-32 121 -71 l105 -70 32 24 c18 14 56 47 85 74 l53 48 -76 122 -76 121 47 111
c39 94 50 112 73 118 14 3 73 18 131 33 l105 26 3 104 c1 57 -1 107 -7 113 -5
5 -64 21 -131 36 l-123 27 -43 113 c-35 89 -42 117 -33 132 5 11 39 65 75 120
l65 100 -73 79 c-39 44 -75 80 -79 80 -5 0 -60 -34 -123 -75 l-115 -74 -108
48 -108 48 -31 134 -31 134 -106 3 c-58 1 -108 -1 -110 -5z m210 -734 c61 -30
126 -106 148 -174 47 -150 -39 -319 -184 -362 -267 -77 -458 257 -270 472 71
81 210 110 306 64z"/>
<path d="M2809 6980 l-153 -250 -265 2 -264 3 -159 235 c-88 129 -163 238
-167 243 -9 9 -461 -192 -461 -205 0 -5 29 -138 65 -295 l66 -287 -28 -27
c-126 -120 -367 -329 -382 -329 -10 0 -127 20 -261 45 -134 25 -251 45 -260
45 -14 0 -40 -54 -109 -224 -50 -124 -91 -229 -91 -234 0 -5 115 -81 255 -168
l255 -159 -3 -260 -2 -259 -240 -167 c-132 -92 -240 -171 -240 -176 0 -7 184
-442 191 -451 1 -2 132 25 291 61 l288 65 50 -46 c28 -25 113 -106 189 -180
l139 -133 -51 -296 c-29 -163 -51 -297 -49 -298 14 -11 450 -176 457 -173 6 2
82 116 169 253 l158 250 259 2 259 3 165 -245 c91 -135 168 -245 171 -245 9 0
443 191 451 198 4 4 -22 135 -58 291 l-64 285 33 35 c48 52 309 335 317 344 4
5 139 -17 299 -48 161 -31 294 -55 296 -53 2 2 43 104 90 228 48 124 89 228
91 231 2 4 -109 78 -246 164 l-250 158 0 266 1 266 230 160 c127 88 234 165
239 170 5 6 -35 104 -93 233 -75 166 -105 222 -118 222 -10 0 -143 -29 -296
-64 -214 -50 -281 -62 -290 -53 -6 7 -85 101 -176 210 l-164 198 38 217 c20
119 42 242 47 272 6 30 10 55 9 56 -57 22 -455 164 -463 164 -6 0 -80 -113
-165 -250z m-127 -1000 c187 -63 338 -176 443 -334 103 -156 148 -307 147
-501 -1 -342 -186 -639 -487 -785 -131 -63 -227 -85 -375 -83 -142 1 -239 25
-365 88 -243 122 -413 352 -466 633 -15 81 -6 307 16 387 23 86 95 229 153
305 116 153 318 277 523 320 24 5 105 8 179 6 121 -3 145 -6 232 -36z"/>
<path d="M8760 6140 c17 -22 40 -40 51 -40 18 0 19 -9 19 -135 l0 -135 55 0
55 0 0 175 0 175 -106 0 -106 0 32 -40z"/>
<path d="M9163 6165 c-41 -18 -55 -45 -51 -103 3 -40 8 -49 37 -69 32 -21 44
-23 184 -23 141 0 152 1 174 22 l23 21 0 -36 c0 -63 -11 -67 -195 -67 l-164 0
-30 -37 -31 -38 192 -3 c236 -4 272 1 310 38 27 27 28 32 28 129 0 55 -5 111
-11 125 -21 45 -71 56 -262 56 -123 -1 -181 -5 -204 -15z m357 -85 c6 -11 8
-25 5 -30 -4 -6 -63 -10 -139 -10 -139 0 -176 10 -163 44 6 14 26 16 146 16
131 0 141 -1 151 -20z"/>
<path d="M4790 5175 l0 -815 393 0 c403 0 459 4 577 42 171 54 328 179 389
307 158 335 -100 682 -553 741 -157 21 -358 -14 -497 -85 l-29 -16 0 321 0
320 -140 0 -140 0 0 -815z m866 34 c85 -28 161 -84 209 -153 36 -52 40 -64 43
-132 4 -64 1 -81 -22 -128 -47 -95 -163 -179 -284 -205 -31 -6 -153 -11 -293
-11 l-240 0 3 203 c3 198 3 203 30 248 101 172 341 249 554 178z"/>
<path d="M6352 5883 l3 -108 143 -3 142 -3 0 111 0 110 -145 0 -146 0 3 -107z"/>
<path d="M6802 5393 l3 -598 31 -65 c98 -206 319 -344 586 -366 l78 -7 0 110
0 110 -59 6 c-119 13 -237 75 -302 161 -53 70 -59 101 -59 310 l0 186 210 0
210 0 0 110 0 110 -210 0 -210 0 0 265 0 265 -140 0 -141 0 3 -597z"/>
<path d="M7305 5720 l49 -50 1080 0 1079 0 -6 -97 c-3 -54 -15 -145 -27 -203
-117 -575 -493 -1022 -1040 -1236 -112 -44 -85 -43 49 1 143 48 295 122 416
203 134 89 338 292 424 422 162 244 260 537 296 879 6 64 10 119 8 124 -2 4
-538 7 -1191 7 l-1186 0 49 -50z"/>
<path d="M6350 4910 l0 -550 145 0 145 0 0 550 0 550 -145 0 -145 0 0 -550z"/>
<path d="M8040 5445 c-161 -33 -277 -92 -381 -195 -114 -112 -159 -218 -159
-372 l0 -78 550 0 c463 0 550 -2 550 -14 0 -26 -89 -112 -148 -144 -96 -52
-161 -62 -394 -62 l-208 0 0 -110 0 -110 218 0 c241 0 309 8 430 49 112 39
184 83 268 166 108 107 154 222 154 388 l0 57 -555 0 -556 0 15 28 c22 43 106
116 166 144 86 40 146 48 370 48 l210 0 0 110 0 110 -232 -1 c-152 -1 -256 -6
-298 -14z"/>
<path d="M4681 3813 c-18 -70 -36 -144 -42 -165 -9 -35 -14 -38 -122 -83 -61
-26 -131 -55 -154 -63 l-42 -16 -76 70 c-43 38 -96 86 -120 107 l-43 37 -87
-97 c-48 -54 -89 -103 -92 -109 -2 -7 34 -75 82 -152 l85 -141 -59 -136 c-33
-75 -61 -138 -63 -140 -2 -1 -73 -22 -158 -46 l-155 -44 -3 -118 c-3 -138 -20
-121 168 -167 69 -17 134 -34 146 -39 15 -7 33 -43 67 -139 26 -71 47 -135 47
-142 0 -7 -39 -76 -86 -152 -48 -76 -85 -140 -83 -142 2 -1 44 -39 93 -84 48
-45 92 -82 97 -82 5 0 69 36 142 81 72 45 134 83 137 84 3 2 64 -22 135 -54
l130 -57 56 -165 56 -164 114 4 c63 2 116 7 119 12 3 4 23 75 44 158 l39 150
129 55 c71 31 133 56 138 56 5 0 73 -39 151 -86 l142 -85 89 88 c48 48 88 90
88 94 0 3 -36 66 -81 139 -45 74 -83 139 -86 146 -3 9 99 270 111 282 2 1 68
21 147 43 79 22 153 42 163 45 18 6 18 14 12 123 -4 64 -10 119 -14 122 -4 4
-75 23 -157 43 l-151 37 -58 135 c-33 76 -55 142 -52 151 4 9 43 76 88 151
l81 134 -91 91 -91 91 -123 -75 c-68 -42 -133 -82 -145 -89 -19 -13 -35 -8
-155 43 l-134 58 -45 162 -45 162 -126 3 -125 3 -32 -128z m252 -698 c125 -32
215 -107 270 -223 30 -63 32 -74 32 -177 0 -104 -2 -114 -32 -176 -102 -207
-339 -292 -541 -193 -154 75 -251 265 -222 432 42 244 266 396 493 337z"/>
</g>
</svg>
